<svg width="512" height="512" viewBox="0 0 512 512" xmlns="http://www.w3.org/2000/svg">
  <defs>
    <linearGradient id="bg" x1="48" y1="28" x2="464" y2="484" gradientUnits="userSpaceOnUse">
      <stop offset="0" stop-color="#2F7BF0"/>
      <stop offset="0.55" stop-color="#1E4FC2"/>
      <stop offset="1" stop-color="#15328F"/>
    </linearGradient>
    <radialGradient id="gloss" cx="0.28" cy="0.16" r="0.72">
      <stop offset="0" stop-color="#FFFFFF" stop-opacity="0.18"/>
      <stop offset="1" stop-color="#FFFFFF" stop-opacity="0"/>
    </radialGradient>
    <linearGradient id="handle" x1="0" y1="0" x2="0" y2="1">
      <stop offset="0" stop-color="#3D8BF5"/>
      <stop offset="1" stop-color="#1D64D8"/>
    </linearGradient>
  </defs>

  <!-- Squircle background -->
  <rect x="0" y="0" width="512" height="512" rx="115" fill="url(#bg)"/>
  <rect x="0" y="0" width="512" height="512" rx="115" fill="url(#gloss)"/>

  <!-- Progress arcs -->
  <path d="M303 118 A147 147 0 0 0 113 232" fill="none" stroke="#66B9F7" stroke-width="26" stroke-linecap="round"/>
  <path d="M398 223 A147 147 0 0 1 332 379" fill="none" stroke="#35D08E" stroke-width="26" stroke-linecap="round"/>

  <!-- Swept-away files -->
  <g>
    <path d="M123 137 h36 l17 17 v48 a10 10 0 0 1 -10 10 h-43 a10 10 0 0 1 -10 -10 v-55 a10 10 0 0 1 10 -10 z" fill="#3B82F6"/>
    <path d="M159 137 l17 17 h-17 z" fill="#BFDBFE"/>
    <path d="M130 178 h38 M130 192 h28" stroke="#EFF6FF" stroke-width="7" stroke-linecap="round"/>

    <rect x="94" y="246" width="68" height="62" rx="11" fill="#34C48B"/>
    <circle cx="140" cy="265" r="8" fill="#ECFDF5"/>
    <path d="M96 301 l21 -22 l14 14 l12 -10 l18 18 z" fill="#A7F3D0"/>

    <path d="M128 332 h22 l9 10 h30 a10 10 0 0 1 10 10 v31 a10 10 0 0 1 -10 10 h-61 a10 10 0 0 1 -10 -10 v-41 a10 10 0 0 1 10 -10 z" fill="#F59E0B"/>
    <path d="M118 356 h81 v27 a10 10 0 0 1 -10 10 h-61 a10 10 0 0 1 -10 -10 z" fill="#FBBF24"/>
  </g>

  <!-- Sparkles -->
  <path d="M213 152 l6 14 l14 6 l-14 6 l-6 14 l-6 -14 l-14 -6 l14 -6 z" fill="#EAF6FF"/>
  <path d="M190 214 l4 10 l10 4 l-10 4 l-4 10 l-4 -10 l-10 -4 l10 -4 z" fill="#BFE3FF"/>

  <!-- Motion swoosh -->
  <path d="M85 322 Q142 360 199 370" fill="none" stroke="#FFFFFF" stroke-opacity="0.35" stroke-width="12" stroke-linecap="round"/>
  <path d="M104 370 Q147 393 190 398" fill="none" stroke="#FFFFFF" stroke-opacity="0.22" stroke-width="10" stroke-linecap="round"/>

  <!-- Broom, tilted -->
  <g transform="rotate(30 265 265)">
    <path d="M265 108 L265 208" stroke="url(#handle)" stroke-width="43" stroke-linecap="round"/>
    <circle cx="265" cy="126" r="8" fill="#0F3E9E"/>

    <path d="M225 199 h80 a15 15 0 0 1 15 16 l-4.3 60 h-102 l-4.3 -60 a15 15 0 0 1 15 -16 z" fill="#FFFFFF"/>
    <path d="M214 261 h101 l1 14 h-103 z" fill="#E4EDFB"/>

    <path d="M277 211 L248 247 h16 L256 275 L286 239 h-16 z" fill="#2D7BF0"/>

    <path d="M220 283 C211 318 197 347 178 370" fill="none" stroke="#FFFFFF" stroke-width="28" stroke-linecap="round"/>
    <path d="M248 285 C243 326 236 356 227 382" fill="none" stroke="#F3F7FE" stroke-width="28" stroke-linecap="round"/>
    <path d="M278 285 C280 326 285 356 292 382" fill="none" stroke="#FFFFFF" stroke-width="28" stroke-linecap="round"/>
    <path d="M306 283 C316 318 330 344 347 365" fill="none" stroke="#E9F1FC" stroke-width="28" stroke-linecap="round"/>
  </g>
</svg>
